<?xml version="1.0" encoding="UTF-8"?>
<svg id="Layer_1" data-name="Layer 1" xmlns="http://www.w3.org/2000/svg" viewBox="0 0 1200 1200">
  <defs>
    <style>
      .cls-1 {
        stroke-width: 11px;
      }

      .cls-1, .cls-2, .cls-3 {
        fill: none;
      }

      .cls-1, .cls-3 {
        stroke: #1b4689;
        stroke-linejoin: bevel;
      }

      .cls-4, .cls-5, .cls-6 {
        stroke: #fff;
        stroke-miterlimit: 10;
        stroke-width: 4px;
      }

      .cls-4, .cls-7 {
        fill: #2e3192;
      }

      .cls-5 {
        fill: #680f0f;
      }

      .cls-6 {
        fill: #1b4689;
      }

      .cls-3 {
        stroke-width: 15px;
      }
    </style>
  </defs>
  <rect class="cls-2" width="1200" height="1200"/>
  <path class="cls-3" d="M611.879,996.782l133.623,77.553c8.988,5.217,20.103,5.13,29.008-.227l164.758-99.105c8.591-5.168,13.837-14.468,13.815-24.494l-.3-138.376c-.022-10.098,5.299-19.454,13.988-24.598l134.08-79.366c8.665-5.129,13.982-14.448,13.989-24.517l.111-169.827c.006-9.949-5.173-19.181-13.667-24.361l-128.942-78.633c-8.466-5.163-13.641-14.353-13.667-24.269l-.378-146.409c-.026-10.259-5.563-19.713-14.497-24.756l-159.87-90.238c-8.548-4.825-18.977-4.914-27.606-.234l-146.474,79.428c-8.67,4.702-19.155,4.588-27.721-.3l-136.293-77.765c-8.714-4.972-19.399-4.998-28.137-.069l-160.278,90.406c-8.903,5.022-14.436,14.425-14.504,24.646l-.971,147.696c-.065,9.943-5.307,19.135-13.831,24.254l-128.528,77.197c-8.545,5.132-13.789,14.354-13.831,24.321l-.725,171.394c-.043,10.149,5.312,19.555,14.061,24.699l133.561,78.526c8.658,5.091,13.999,14.361,14.061,24.405l.865,142.163c.062,10.127,5.491,19.462,14.263,24.523l163.146,94.123c8.966,5.173,20.031,5.08,28.909-.243l129.009-77.344c8.901-5.336,19.997-5.415,28.973-.206,0,0-8.975-5.209,0,0Z"/>
  <path class="cls-1" d="M628.131,275.674l67.812-39.358c18.702-10.854,41.828-10.673,60.357.473l93.45,56.212c17.876,10.753,28.791,30.104,28.745,50.965l-.146,67.246c-.046,21.01,11.025,40.477,29.105,51.18l69.615,41.207c18.029,10.672,29.092,30.061,29.106,51.012l.061,92.314c.014,20.7-10.764,39.91-28.437,50.688l-66.464,40.532c-17.615,10.742-28.383,29.864-28.436,50.496l-.19,73.458c-.055,21.346-11.574,41.017-30.163,51.509l-89.717,50.64c-17.786,10.039-39.486,10.224-57.44.488l-79.638-43.186c-18.04-9.783-39.855-9.547-57.679.623l-71.587,40.846c-18.131,10.345-40.364,10.4-58.545.144l-89.663-50.575c-18.524-10.449-30.038-30.014-30.177-51.281l-.49-74.499c-.136-20.689-11.041-39.813-28.777-50.466l-65.898-39.579c-17.779-10.678-28.69-29.866-28.778-50.605l-.395-93.314c-.089-21.116,11.053-40.688,29.256-51.391l69.089-40.62c18.015-10.592,29.128-29.881,29.255-50.779l.427-70.12c.128-21.072,11.425-40.494,29.677-51.025l91.659-52.88c18.655-10.763,41.678-10.569,60.15.505l64.572,38.712c18.519,11.103,41.608,11.266,60.283.428,0,0-18.675,10.839,0,0Z"/>
  <path class="cls-1" d="M629.075,370.465l27.348-15.873c18.892-10.965,42.253-10.782,60.971.477l45.584,27.419c18.058,10.862,29.083,30.41,29.038,51.483l-.054,24.73c-.046,21.224,11.137,40.889,29.402,51.7l29.336,17.365c18.212,10.78,29.388,30.367,29.402,51.531l.028,42.149c.014,20.91-10.873,40.316-28.726,51.203l-27.629,16.849c-17.794,10.851-28.672,30.168-28.726,51.009l-.075,28.949c-.056,21.563-11.692,41.434-30.47,52.033l-43.072,24.312c-17.967,10.141-39.888,10.328-58.024.493l-36.375-19.725c-18.224-9.882-40.26-9.644-58.266.63l-30.813,17.581c-18.315,10.45-40.774,10.505-59.141.146l-42.841-24.165c-18.712-10.555-30.343-30.319-30.484-51.802l-.195-29.68c-.137-20.9-11.153-40.218-29.07-50.979l-27.115-16.286c-17.96-10.787-28.982-30.17-29.071-51.12l-.181-42.717c-.09-21.331,11.165-41.102,29.554-51.914l28.913-16.999c18.198-10.7,29.425-30.185,29.553-51.295l.162-26.653c.13-21.286,11.541-40.906,29.979-51.544l44.081-25.431c18.845-10.872,42.102-10.677,60.761.51l25.32,15.18c18.707,11.216,42.031,11.381,60.896.432,0,0-18.865,10.949,0,0Z"/>
  <g>
    <circle class="cls-7" cx="571.807" cy="607.954" r="42.729"/>
    <circle class="cls-4" cx="614.535" cy="607.954" r="42.729"/>
    <circle class="cls-6" cx="571.807" cy="650.683" r="42.729"/>
    <circle class="cls-5" cx="628.178" cy="650.683" r="42.729"/>
    <circle class="cls-6" cx="657.264" cy="586.65" r="42.729"/>
    <circle class="cls-5" cx="599.006" cy="549.184" r="42.729"/>
    <circle class="cls-5" cx="542.721" cy="591.912" r="42.729"/>
    <circle class="cls-6" cx="604.269" cy="605.688" r="42.729"/>
  </g>
</svg>